<svg version="1.1" id="Layer_1" xmlns="http://www.w3.org/2000/svg" xmlns:xlink="http://www.w3.org/1999/xlink" x="0px" y="0px"
	 width="100%" viewBox="0 0 314 168" enable-background="new 0 0 314 168" xml:space="preserve">
<path fill="#FEFDFD" opacity="1.000000" stroke="none" 
	d="
M228.000000,169.000000 
	C152.000015,169.000000 76.500015,169.000000 1.000020,169.000000 
	C1.000014,113.000015 1.000014,57.000031 1.000007,1.000035 
	C105.666634,1.000024 210.333267,1.000024 314.999939,1.000012 
	C314.999939,56.999966 314.999939,112.999931 314.999969,168.999939 
	C286.166656,169.000000 257.333344,169.000000 228.000000,169.000000 
M210.415100,54.541180 
	C212.905777,58.853477 215.396317,63.165867 217.887192,67.478050 
	C220.792358,72.507416 223.819382,72.473564 226.760788,67.353088 
	C229.636475,62.346951 232.480179,57.322430 235.337921,52.305969 
	C235.649185,52.434452 235.960434,52.562939 236.271698,52.691422 
	C236.271698,62.626072 236.271698,72.560722 236.271698,82.623276 
	C239.321472,82.623276 242.064087,82.623276 244.900146,82.623276 
	C244.900146,66.523468 244.900146,50.673038 244.900146,34.846375 
	C236.533127,34.426212 236.533783,34.426605 232.512863,41.158741 
	C229.167267,46.760185 225.819901,52.360573 222.231110,58.366787 
	C218.399536,51.916496 214.853424,45.945236 211.305786,39.974869 
	C207.644226,33.812763 206.922424,33.537323 199.483673,35.415916 
	C199.483673,51.154884 199.483673,66.876511 199.483673,82.573334 
	C202.596512,82.573334 205.355103,82.573334 208.127228,82.573334 
	C208.127228,72.807793 208.127228,63.338524 209.095703,53.803043 
	C209.415024,53.855335 209.734360,53.907627 210.415100,54.541180 
M16.978584,77.410011 
	C17.202459,78.378456 17.357912,79.368835 17.660402,80.312073 
	C22.797874,96.331818 31.916075,110.233627 41.082207,124.094269 
	C44.426739,129.151733 48.046692,134.027039 51.616646,139.092804 
	C62.246235,127.219246 79.933685,97.517601 85.055267,83.797401 
	C88.281654,75.154221 88.221695,66.546394 85.549095,57.934002 
	C81.661568,45.406509 71.048172,33.557716 48.139576,34.861012 
	C22.329039,36.329407 13.630306,60.886551 16.978584,77.410011 
M183.468872,79.081673 
	C192.493179,73.234665 195.470032,64.619980 193.900589,54.479897 
	C192.430496,44.981785 186.917999,37.745602 177.418396,35.984871 
	C168.311218,34.296875 158.809555,34.737366 149.626068,34.250122 
	C149.626068,51.204483 149.626068,66.934746 149.626068,82.877060 
	C154.829865,82.877060 159.699097,83.307770 164.458847,82.769775 
	C170.630188,82.072235 176.714310,80.603027 183.468872,79.081673 
M122.507828,53.890553 
	C119.243073,53.890553 115.978325,53.890553 112.259109,53.890553 
	C112.259109,47.203373 112.259109,41.127106 112.259109,35.027737 
	C108.904968,35.027737 106.043686,35.027737 103.250885,35.027737 
	C103.250885,51.098003 103.250885,66.820953 103.250885,82.628006 
	C106.308014,82.628006 109.060936,82.628006 112.390808,82.628006 
	C112.390808,76.026459 112.390808,69.632393 112.390808,63.333549 
	C119.550865,63.333549 126.124092,63.333549 133.224609,63.333549 
	C133.224609,70.022888 133.224609,76.407852 133.224609,82.639977 
	C136.384048,82.639977 138.999878,82.639977 141.768799,82.639977 
	C141.768799,66.559677 141.768799,50.699749 141.768799,34.998245 
	C138.694305,34.998245 135.948441,34.998245 132.794220,34.998245 
	C132.794220,41.382504 132.794220,47.462227 132.794220,53.890549 
	C129.409454,53.890549 126.445633,53.890549 122.507828,53.890553 
M291.946686,67.553314 
	C287.960632,57.724049 283.811279,47.956169 280.080933,38.030804 
	C278.845917,34.744858 276.812469,34.644943 273.996338,34.564682 
	C271.033264,34.480225 269.206055,35.013851 268.003448,38.151249 
	C263.138611,50.842785 257.971497,63.418350 252.928741,76.041832 
	C252.089981,78.141502 251.314835,80.266586 250.321487,82.875862 
	C253.148819,82.875862 255.338974,83.151985 257.411316,82.777008 
	C258.751953,82.534431 260.834381,81.512718 261.018280,80.543106 
	C262.270081,73.942802 266.544434,72.893906 272.243866,73.578293 
	C274.871826,73.893860 277.600677,73.889290 280.226990,73.567116 
	C283.505280,73.164963 285.356720,74.561348 285.854126,77.536850 
	C286.611298,82.066315 289.111359,83.635361 293.483002,82.908577 
	C294.774719,82.693840 296.132355,82.875496 297.998047,82.875496 
	C295.947998,77.786858 294.037567,73.044724 291.946686,67.553314 
M215.647690,99.865273 
	C205.272430,89.752731 192.364471,94.040611 180.209686,92.994743 
	C180.209686,108.681007 180.209686,123.715790 180.209686,138.752533 
	C188.575958,138.752533 196.909637,139.977493 204.734177,138.502182 
	C222.002197,135.246353 227.804550,114.757095 215.647690,99.865273 
M104.132042,114.059296 
	C104.419380,113.107773 104.668427,112.142677 105.000031,111.206841 
	C107.957542,102.860161 115.927490,98.793579 124.153305,101.420006 
	C131.715729,103.834610 136.487732,112.932877 133.995010,120.784241 
	C133.485748,122.388283 131.626495,123.563721 130.389542,124.936737 
	C129.502930,123.397018 127.990669,121.911575 127.851486,120.307022 
	C127.489281,116.131401 127.729691,111.903519 127.729691,107.926933 
	C125.306641,107.805916 123.741196,108.047913 122.403069,107.604271 
	C117.204674,105.880791 113.005943,106.980278 110.589569,110.955299 
	C107.816841,115.516556 108.581924,121.878792 112.294632,125.134094 
	C115.770203,128.181473 120.033974,127.850372 123.775955,124.938354 
	C127.068069,125.773468 129.873810,127.408134 131.958542,126.751999 
	C134.004196,126.108154 136.159866,123.378456 136.805161,121.142265 
	C139.599136,111.459892 133.755478,101.364616 124.328972,98.752823 
	C114.658478,96.073425 105.021721,101.224220 102.140381,110.612511 
	C99.044868,120.698624 104.069710,131.773376 113.182411,134.949173 
	C120.048935,137.342163 127.974327,135.530029 130.991379,130.567062 
	C130.038193,130.644424 129.237686,130.501602 128.644424,130.788040 
	C114.923195,137.412628 104.052361,130.393036 104.132042,114.059296 
M253.029037,104.632355 
	C254.144867,104.632355 255.260681,104.632355 256.526367,104.632355 
	C253.987946,95.051025 246.342407,90.646248 236.718094,92.676949 
	C230.066177,94.080482 225.916138,98.117882 225.442383,103.646584 
	C225.008331,108.711899 228.177979,112.554901 234.894119,114.920670 
	C237.234604,115.745110 239.699707,116.219360 242.030685,117.066124 
	C244.667160,118.023872 247.455292,118.861458 249.754776,120.388000 
	C254.602936,123.606529 254.553329,130.398254 249.935028,133.953506 
	C243.167526,139.163254 232.342224,136.410339 228.816467,128.697388 
	C228.335403,127.645027 227.034988,126.967209 226.113953,126.115982 
	C225.882309,127.551720 225.066727,129.211441 225.517090,130.385559 
	C227.831512,136.419189 232.658539,139.458359 238.886047,140.013535 
	C245.677795,140.619003 251.871002,139.198563 255.822372,132.897339 
	C256.498016,131.819885 256.834808,130.441238 257.016418,129.157623 
	C257.937622,122.647446 255.704086,118.540649 249.186768,115.819633 
	C244.308426,113.782898 238.982254,112.751137 234.254730,110.451218 
	C232.101120,109.403496 229.441528,106.217583 229.647324,104.281715 
	C229.920685,101.710342 232.252136,98.472176 234.609756,97.174026 
	C241.681793,93.280037 249.025284,96.326675 253.029037,104.632355 
M158.551819,136.581543 
	C151.583054,136.256943 147.128860,132.762985 144.649292,125.704376 
	C143.528152,126.946892 142.666840,128.374451 142.954620,129.511063 
	C144.471207,135.500793 148.997787,138.440125 154.599640,139.813324 
	C163.321442,141.951294 172.558807,137.397202 174.663162,130.149094 
	C176.776108,122.871315 172.431152,117.235222 162.295792,114.030487 
	C158.676270,112.886017 154.788361,112.150887 151.592072,110.264572 
	C149.521469,109.042595 147.287247,106.059769 147.311768,103.890656 
	C147.337006,101.655807 149.530014,98.670700 151.618759,97.378265 
	C158.046951,93.400772 166.387939,96.215302 169.968658,102.792847 
	C170.549728,103.860214 172.143372,104.376335 173.268967,105.147263 
	C172.542984,97.593178 168.526566,93.907234 162.266205,92.665100 
	C155.822372,91.386559 149.885651,92.516525 145.476654,97.693146 
	C140.769928,103.219330 142.622025,110.537712 149.652084,113.668076 
	C154.458557,115.808311 159.659897,117.044563 164.616379,118.870438 
	C168.686340,120.369728 171.467667,123.080841 170.987228,127.813187 
	C170.525848,132.357895 167.514526,134.775879 163.377167,135.961136 
	C162.109192,136.324387 160.753723,136.382187 158.551819,136.581543 
M297.251404,99.625206 
	C297.251404,97.506332 297.251404,95.387451 297.251404,93.268578 
	C296.612823,93.087585 295.974243,92.906593 295.335693,92.725601 
	C294.770355,94.048141 293.753571,95.356712 293.712158,96.695457 
	C293.418884,106.175644 293.709106,115.689140 293.040527,125.137344 
	C292.553375,132.021805 288.407166,135.502899 281.716827,136.277161 
	C271.102783,137.505508 265.186829,132.424805 265.000214,121.668030 
	C264.852875,113.175110 264.902008,104.677086 264.991394,96.182655 
	C265.023926,93.088997 263.831543,92.516045 261.695740,93.376030 
	C261.695740,104.641708 260.910828,115.509483 261.921326,126.207680 
	C262.889618,136.459564 270.145416,140.807663 281.841797,140.080124 
	C290.689087,139.529800 296.818451,133.068329 297.110168,123.580238 
	C297.345520,115.924622 297.217957,108.257835 297.251404,99.625206 
z"/>
<path fill="#C51532" opacity="1.000000" stroke="none" 
	d="
M16.896915,76.992088 
	C13.630306,60.886551 22.329039,36.329407 48.139576,34.861012 
	C71.048172,33.557716 81.661568,45.406509 85.549095,57.934002 
	C88.221695,66.546394 88.281654,75.154221 85.055267,83.797401 
	C79.933685,97.517601 62.246235,127.219246 51.616646,139.092804 
	C48.046692,134.027039 44.426739,129.151733 41.082207,124.094269 
	C31.916075,110.233627 22.797874,96.331818 17.660402,80.312073 
	C17.357912,79.368835 17.202459,78.378456 16.896915,76.992088 
M38.820728,63.382565 
	C33.333824,70.603432 32.724545,77.842079 37.036842,84.576279 
	C41.032715,90.816338 48.541122,94.238731 55.526005,92.150734 
	C60.600880,90.633690 65.356796,88.069855 70.726234,91.886185 
	C70.021667,87.237694 68.593071,83.371880 69.053894,79.746223 
	C70.163391,71.017036 67.637527,63.996361 60.824623,59.972439 
	C53.944584,55.908867 46.165386,56.944370 38.820728,63.382565 
z"/>
<path fill="#282425" opacity="1.000000" stroke="none" 
	d="
M208.127228,53.869255 
	C208.127228,63.338524 208.127228,72.807793 208.127228,82.573334 
	C205.355103,82.573334 202.596512,82.573334 199.483673,82.573334 
	C199.483673,66.876511 199.483673,51.154884 199.483673,35.415916 
	C206.922424,33.537323 207.644226,33.812763 211.305786,39.974869 
	C214.853424,45.945236 218.399536,51.916496 222.231110,58.366787 
	C225.819901,52.360573 229.167267,46.760185 232.512863,41.158741 
	C236.533783,34.426605 236.533127,34.426212 244.900146,34.846375 
	C244.900146,50.673038 244.900146,66.523468 244.900146,82.623276 
	C242.064087,82.623276 239.321472,82.623276 236.271698,82.623276 
	C236.271698,72.560722 236.271698,62.626072 236.271698,52.691422 
	C235.960434,52.562939 235.649185,52.434452 235.337921,52.305969 
	C232.480179,57.322430 229.636475,62.346951 226.760788,67.353088 
	C223.819382,72.473564 220.792358,72.507416 217.887192,67.478050 
	C215.396317,63.165867 212.905777,58.853477 210.223694,53.921627 
	C209.578369,52.560078 209.124466,51.818085 208.127228,50.187889 
	C208.127228,52.127125 208.127228,52.998188 208.127228,53.869255 
z"/>
<path fill="#2A2727" opacity="1.000000" stroke="none" 
	d="
M183.152420,79.273834 
	C176.714310,80.603027 170.630188,82.072235 164.458847,82.769775 
	C159.699097,83.307770 154.829865,82.877060 149.626068,82.877060 
	C149.626068,66.934746 149.626068,51.204483 149.626068,34.250122 
	C158.809555,34.737366 168.311218,34.296875 177.418396,35.984871 
	C186.917999,37.745602 192.430496,44.981785 193.900589,54.479897 
	C195.470032,64.619980 192.493179,73.234665 183.152420,79.273834 
M179.105728,70.740135 
	C184.792618,64.956146 186.279739,57.611065 182.732361,51.224617 
	C177.285614,41.418625 167.984863,43.804234 159.324463,43.766479 
	C159.324463,54.003613 159.324463,63.880409 159.324463,75.193405 
	C166.104843,73.763847 172.287064,72.460403 179.105728,70.740135 
z"/>
<path fill="#242021" opacity="1.000000" stroke="none" 
	d="
M122.994820,53.890549 
	C126.445633,53.890549 129.409454,53.890549 132.794220,53.890549 
	C132.794220,47.462227 132.794220,41.382504 132.794220,34.998245 
	C135.948441,34.998245 138.694305,34.998245 141.768799,34.998245 
	C141.768799,50.699749 141.768799,66.559677 141.768799,82.639977 
	C138.999878,82.639977 136.384048,82.639977 133.224609,82.639977 
	C133.224609,76.407852 133.224609,70.022888 133.224609,63.333549 
	C126.124092,63.333549 119.550865,63.333549 112.390808,63.333549 
	C112.390808,69.632393 112.390808,76.026459 112.390808,82.628006 
	C109.060936,82.628006 106.308014,82.628006 103.250885,82.628006 
	C103.250885,66.820953 103.250885,51.098003 103.250885,35.027737 
	C106.043686,35.027737 108.904968,35.027737 112.259109,35.027737 
	C112.259109,41.127106 112.259109,47.203373 112.259109,53.890553 
	C115.978325,53.890553 119.243073,53.890553 122.994820,53.890549 
z"/>
<path fill="#2A2627" opacity="1.000000" stroke="none" 
	d="
M292.036926,67.927948 
	C294.037567,73.044724 295.947998,77.786858 297.998047,82.875496 
	C296.132355,82.875496 294.774719,82.693840 293.483002,82.908577 
	C289.111359,83.635361 286.611298,82.066315 285.854126,77.536850 
	C285.356720,74.561348 283.505280,73.164963 280.226990,73.567116 
	C277.600677,73.889290 274.871826,73.893860 272.243866,73.578293 
	C266.544434,72.893906 262.270081,73.942802 261.018280,80.543106 
	C260.834381,81.512718 258.751953,82.534431 257.411316,82.777008 
	C255.338974,83.151985 253.148819,82.875862 250.321487,82.875862 
	C251.314835,80.266586 252.089981,78.141502 252.928741,76.041832 
	C257.971497,63.418350 263.138611,50.842785 268.003448,38.151249 
	C269.206055,35.013851 271.033264,34.480225 273.996338,34.564682 
	C276.812469,34.644943 278.845917,34.744858 280.080933,38.030804 
	C283.811279,47.956169 287.960632,57.724049 292.036926,67.927948 
M269.061462,59.843761 
	C268.573975,61.461990 268.086487,63.080219 267.523712,64.948288 
	C272.270142,64.948288 276.389313,64.948288 280.926300,64.948288 
	C278.721497,59.039635 276.602264,53.360325 274.128754,46.731575 
	C272.273041,51.491558 270.798401,55.274029 269.061462,59.843761 
z"/>
<path fill="#332F30" opacity="1.000000" stroke="none" 
	d="
M215.899979,100.122406 
	C227.804550,114.757095 222.002197,135.246353 204.734177,138.502182 
	C196.909637,139.977493 188.575958,138.752533 180.209686,138.752533 
	C180.209686,123.715790 180.209686,108.681007 180.209686,92.994743 
	C192.364471,94.040611 205.272430,89.752731 215.899979,100.122406 
M183.980362,134.433762 
	C189.657623,134.725922 195.355789,135.471069 201.007538,135.210297 
	C210.929840,134.752472 217.569214,127.772514 218.166092,117.974075 
	C218.804489,107.494598 213.000732,98.810616 203.361847,97.454224 
	C197.070831,96.568947 190.554138,97.287285 183.906250,97.287285 
	C183.906250,109.522293 183.906250,121.480667 183.980362,134.433762 
z"/>
<path fill="#363334" opacity="1.000000" stroke="none" 
	d="
M104.109833,114.478363 
	C104.052361,130.393036 114.923195,137.412628 128.644424,130.788040 
	C129.237686,130.501602 130.038193,130.644424 130.991379,130.567062 
	C127.974327,135.530029 120.048935,137.342163 113.182411,134.949173 
	C104.069710,131.773376 99.044868,120.698624 102.140381,110.612511 
	C105.021721,101.224220 114.658478,96.073425 124.328972,98.752823 
	C133.755478,101.364616 139.599136,111.459892 136.805161,121.142265 
	C136.159866,123.378456 134.004196,126.108154 131.958542,126.751999 
	C129.873810,127.408134 127.068069,125.773468 123.775955,124.938354 
	C120.033974,127.850372 115.770203,128.181473 112.294632,125.134094 
	C108.581924,121.878792 107.816841,115.516556 110.589569,110.955299 
	C113.005943,106.980278 117.204674,105.880791 122.403069,107.604271 
	C123.741196,108.047913 125.306641,107.805916 127.729691,107.926933 
	C127.729691,111.903519 127.489281,116.131401 127.851486,120.307022 
	C127.990669,121.911575 129.502930,123.397018 130.389542,124.936737 
	C131.626495,123.563721 133.485748,122.388283 133.995010,120.784241 
	C136.487732,112.932877 131.715729,103.834610 124.153305,101.420006 
	C115.927490,98.793579 107.957542,102.860161 105.000031,111.206841 
	C104.668427,112.142677 104.419380,113.107773 104.109833,114.478363 
M112.449783,117.416237 
	C112.773170,120.882477 114.270302,123.955963 117.956505,123.793762 
	C120.057709,123.701309 122.880348,121.862381 123.942711,119.993790 
	C126.319405,115.813446 124.509743,111.157585 120.856468,110.066917 
	C116.575249,108.788788 113.777405,110.950165 112.449783,117.416237 
z"/>
<path fill="#302C2D" opacity="1.000000" stroke="none" 
	d="
M252.878998,104.286438 
	C249.025284,96.326675 241.681793,93.280037 234.609756,97.174026 
	C232.252136,98.472176 229.920685,101.710342 229.647324,104.281715 
	C229.441528,106.217583 232.101120,109.403496 234.254730,110.451218 
	C238.982254,112.751137 244.308426,113.782898 249.186768,115.819633 
	C255.704086,118.540649 257.937622,122.647446 257.016418,129.157623 
	C256.834808,130.441238 256.498016,131.819885 255.822372,132.897339 
	C251.871002,139.198563 245.677795,140.619003 238.886047,140.013535 
	C232.658539,139.458359 227.831512,136.419189 225.517090,130.385559 
	C225.066727,129.211441 225.882309,127.551720 226.113953,126.115982 
	C227.034988,126.967209 228.335403,127.645027 228.816467,128.697388 
	C232.342224,136.410339 243.167526,139.163254 249.935028,133.953506 
	C254.553329,130.398254 254.602936,123.606529 249.754776,120.388000 
	C247.455292,118.861458 244.667160,118.023872 242.030685,117.066124 
	C239.699707,116.219360 237.234604,115.745110 234.894119,114.920670 
	C228.177979,112.554901 225.008331,108.711899 225.442383,103.646584 
	C225.916138,98.117882 230.066177,94.080482 236.718094,92.676949 
	C246.342407,90.646248 253.987946,95.051025 256.526367,104.632355 
	C255.260681,104.632355 254.144867,104.632355 252.878998,104.286438 
z"/>
<path fill="#312D2E" opacity="1.000000" stroke="none" 
	d="
M158.995056,136.580688 
	C160.753723,136.382187 162.109192,136.324387 163.377167,135.961136 
	C167.514526,134.775879 170.525848,132.357895 170.987228,127.813187 
	C171.467667,123.080841 168.686340,120.369728 164.616379,118.870438 
	C159.659897,117.044563 154.458557,115.808311 149.652084,113.668076 
	C142.622025,110.537712 140.769928,103.219330 145.476654,97.693146 
	C149.885651,92.516525 155.822372,91.386559 162.266205,92.665100 
	C168.526566,93.907234 172.542984,97.593178 173.268967,105.147263 
	C172.143372,104.376335 170.549728,103.860214 169.968658,102.792847 
	C166.387939,96.215302 158.046951,93.400772 151.618759,97.378265 
	C149.530014,98.670700 147.337006,101.655807 147.311768,103.890656 
	C147.287247,106.059769 149.521469,109.042595 151.592072,110.264572 
	C154.788361,112.150887 158.676270,112.886017 162.295792,114.030487 
	C172.431152,117.235222 176.776108,122.871315 174.663162,130.149094 
	C172.558807,137.397202 163.321442,141.951294 154.599640,139.813324 
	C148.997787,138.440125 144.471207,135.500793 142.954620,129.511063 
	C142.666840,128.374451 143.528152,126.946892 144.649292,125.704376 
	C147.128860,132.762985 151.583054,136.256943 158.995056,136.580688 
z"/>
<path fill="#2F2B2C" opacity="1.000000" stroke="none" 
	d="
M297.251404,100.110611 
	C297.217957,108.257835 297.345520,115.924622 297.110168,123.580238 
	C296.818451,133.068329 290.689087,139.529800 281.841797,140.080124 
	C270.145416,140.807663 262.889618,136.459564 261.921326,126.207680 
	C260.910828,115.509483 261.695740,104.641708 261.695740,93.376030 
	C263.831543,92.516045 265.023926,93.088997 264.991394,96.182655 
	C264.902008,104.677086 264.852875,113.175110 265.000214,121.668030 
	C265.186829,132.424805 271.102783,137.505508 281.716827,136.277161 
	C288.407166,135.502899 292.553375,132.021805 293.040527,125.137344 
	C293.709106,115.689140 293.418884,106.175644 293.712158,96.695457 
	C293.753571,95.356712 294.770355,94.048141 295.335693,92.725601 
	C295.974243,92.906593 296.612823,93.087585 297.251404,93.268578 
	C297.251404,95.387451 297.251404,97.506332 297.251404,100.110611 
z"/>
<path fill="#ABA9A9" opacity="1.000000" stroke="none" 
	d="
M208.611465,53.836151 
	C208.127228,52.998188 208.127228,52.127125 208.127228,50.187889 
	C209.124466,51.818085 209.578369,52.560078 210.042969,53.630997 
	C209.734360,53.907627 209.415024,53.855335 208.611465,53.836151 
z"/>
<path fill="#FDFAFA" opacity="1.000000" stroke="none" 
	d="
M39.066513,63.109276 
	C46.165386,56.944370 53.944584,55.908867 60.824623,59.972439 
	C67.637527,63.996361 70.163391,71.017036 69.053894,79.746223 
	C68.593071,83.371880 70.021667,87.237694 70.726234,91.886185 
	C65.356796,88.069855 60.600880,90.633690 55.526005,92.150734 
	C48.541122,94.238731 41.032715,90.816338 37.036842,84.576279 
	C32.724545,77.842079 33.333824,70.603432 39.066513,63.109276 
M60.046299,72.381264 
	C57.847904,73.937729 57.278004,75.919319 59.670959,77.455238 
	C60.487377,77.979240 63.221973,77.209427 63.636097,76.341644 
	C64.789726,73.924271 63.550217,72.294502 60.046299,72.381264 
M50.797749,72.351311 
	C48.487862,73.882782 48.047050,75.881371 50.383644,77.427467 
	C51.192493,77.962662 53.118851,76.808975 54.534767,76.426704 
	C53.532646,74.979889 52.530525,73.533081 50.797749,72.351311 
M43.788193,72.404739 
	C42.454853,73.155830 40.982887,73.757156 39.890358,74.768417 
	C39.632797,75.006813 40.403214,77.028587 41.156528,77.497116 
	C41.910076,77.965797 44.102177,77.711784 44.163815,77.437508 
	C44.495342,75.962234 44.359493,74.381927 43.788193,72.404739 
z"/>
<path fill="#FDFDFD" opacity="1.000000" stroke="none" 
	d="
M178.787506,70.948547 
	C172.287064,72.460403 166.104843,73.763847 159.324463,75.193405 
	C159.324463,63.880409 159.324463,54.003613 159.324463,43.766479 
	C167.984863,43.804234 177.285614,41.418625 182.732361,51.224617 
	C186.279739,57.611065 184.792618,64.956146 178.787506,70.948547 
z"/>
<path fill="#F7F6F6" opacity="1.000000" stroke="none" 
	d="
M269.192627,59.450130 
	C270.798401,55.274029 272.273041,51.491558 274.128754,46.731575 
	C276.602264,53.360325 278.721497,59.039635 280.926300,64.948288 
	C276.389313,64.948288 272.270142,64.948288 267.523712,64.948288 
	C268.086487,63.080219 268.573975,61.461990 269.192627,59.450130 
z"/>
<path fill="#FEFEFE" opacity="1.000000" stroke="none" 
	d="
M183.943298,133.936401 
	C183.906250,121.480667 183.906250,109.522293 183.906250,97.287285 
	C190.554138,97.287285 197.070831,96.568947 203.361847,97.454224 
	C213.000732,98.810616 218.804489,107.494598 218.166092,117.974075 
	C217.569214,127.772514 210.929840,134.752472 201.007538,135.210297 
	C195.355789,135.471069 189.657623,134.725922 183.943298,133.936401 
z"/>
<path fill="#F7F7F7" opacity="1.000000" stroke="none" 
	d="
M112.451721,116.987228 
	C113.777405,110.950165 116.575249,108.788788 120.856468,110.066917 
	C124.509743,111.157585 126.319405,115.813446 123.942711,119.993790 
	C122.880348,121.862381 120.057709,123.701309 117.956505,123.793762 
	C114.270302,123.955963 112.773170,120.882477 112.451721,116.987228 
z"/>
<path fill="#383637" opacity="1.000000" stroke="none" 
	d="
M60.405800,72.241806 
	C63.550217,72.294502 64.789726,73.924271 63.636097,76.341644 
	C63.221973,77.209427 60.487377,77.979240 59.670959,77.455238 
	C57.278004,75.919319 57.847904,73.937729 60.405800,72.241806 
z"/>
<path fill="#363335" opacity="1.000000" stroke="none" 
	d="
M51.163078,72.218788 
	C52.530525,73.533081 53.532646,74.979889 54.534767,76.426704 
	C53.118851,76.808975 51.192493,77.962662 50.383644,77.427467 
	C48.047050,75.881371 48.487862,73.882782 51.163078,72.218788 
z"/>
<path fill="#322F30" opacity="1.000000" stroke="none" 
	d="
M44.086582,72.621307 
	C44.359493,74.381927 44.495342,75.962234 44.163815,77.437508 
	C44.102177,77.711784 41.910076,77.965797 41.156528,77.497116 
	C40.403214,77.028587 39.632797,75.006813 39.890358,74.768417 
	C40.982887,73.757156 42.454853,73.155830 44.086582,72.621307 
z"/>
</svg>